<?xml version="1.0" encoding="utf-8"?>
<!-- Generator: Adobe Illustrator 21.0.0, SVG Export Plug-In . SVG Version: 6.00 Build 0)  -->
<svg version="1.1" id="Layer_1" xmlns="http://www.w3.org/2000/svg" xmlns:xlink="http://www.w3.org/1999/xlink" x="0px" y="0px"
	 viewBox="0 0 2663.5 1498.2" style="enable-background:new 0 0 2663.5 1498.2;" xml:space="preserve">
<style type="text/css">
	.st0{fill:#92C845;}
	.st1{fill:#58585A;}
	.st2{fill:#0078BE;}
	.st3{fill:none;stroke:#58585A;stroke-miterlimit:10;}
</style>
<path class="st0" d="M1585.6,780.3c-172.5,0-345,0-518.2,0c1.1-3.7,4.3-4.1,6.7-5.2c30.2-14.1,60.4-28.1,90.7-42.1
	c51.4-23.8,102.9-47.5,154.1-71.6c7.3-3.4,13.3-3.5,20.6,0c59.8,28.6,119.8,56.9,179.7,85.3c18.7,8.8,37.4,17.6,56,26.5
	c3.6,1.7,7.1,3.5,10.6,5.3C1585.8,779.1,1585.7,779.7,1585.6,780.3z"/>
<path class="st1" d="M636.1,295.9c-55.3,4.9-105.9,33.3-137.3,77c-12.3,17.2-24.1,43.6-29.1,65.2c-2.6,11.3-4.6,29.2-4.6,41.8
	c0,93,63.1,166.9,156,182.4c13.4,2.3,40.2,3,54.1,1.6c68.4-7.2,124.7-46.2,152.4-105.6c20-42.8,22.6-93.2,7.4-138.9
	C807.8,337.6,727.7,287.8,636.1,295.9z M676.1,369.5c43.5,8.6,76.8,43.6,85.1,89.3c2,11,1.7,35.5-0.5,46
	c-5,23.5-14.7,41.9-30.2,57.4c-22.3,22.2-53.5,33.1-85.7,29.9c-46.5-4.8-82.2-36.2-94.4-83.2c-3-11.9-4.1-33.2-2.4-46.4
	C556.6,398.4,613.5,357.1,676.1,369.5z"/>
<path class="st1" d="M1942.6,295.5c-8.8,0.6-25.7,3.4-36,6c-35.7,8.9-70.1,29.7-93.5,56.6c-38.2,43.6-53.3,101.4-42,160.1
	c3.1,15.8,8.1,30.2,16,46.1c31.2,62.6,95.2,100.5,169.5,100.5c87.1,0,159-51.9,183.1-132.3c5.4-17.8,6.8-29.4,6.8-53.2
	c0-26.1-1.8-38.2-8.8-59.1c-13-38.8-37.1-70.6-70.6-93.1C2032.3,303.7,1988,292.5,1942.6,295.5z M1979.6,369.8
	c37.6,7.5,68.6,36.2,80.5,74.6c6.9,22.4,6.7,50.5-0.6,73.6c-5.1,16.3-16.3,34.7-27.6,45.4c-31.1,29.9-79.9,37.8-119.5,19.4
	c-44.1-20.5-69.4-69.9-61.9-121C1860.1,396.8,1915.9,357,1979.6,369.8z"/>
<path class="st1" d="M1554.1,296.8c-59.4,6.2-99.7,40.5-107.1,90.9c-1.8,12.8-0.7,35.2,2.5,47.3c7.3,28.3,26,47.6,59.8,61.6
	c12.9,5.4,26.8,9.8,52.3,16.7c39.4,10.6,56.3,17.2,65.6,25.4c6.9,6,9.2,12.2,8.7,23.1c-0.3,7.2-0.9,9.4-3.2,13.3
	c-7.9,13.6-27.2,20.5-53.6,19.4c-32.2-1.4-60-12.2-91.1-35.3c-5.5-4.1-10.1-7.4-10.3-7.4c-0.6,0-32.8,39.1-32.5,39.4
	c0.2,0.2,34.6,16.5,76.4,36.3l76,36l8-0.9c50.1-5.3,87.8-30.8,101.5-68.6c4.6-12.6,6.1-21.1,6.7-36.3c1.7-41-12.8-68.1-47.1-88.1
	c-15.6-9.1-36.2-16.7-72.1-26.4c-48.4-13.1-61.9-19.4-68-31.8c-3.5-7.1-3.7-18-0.4-25.5c5.6-13.1,20.9-20.3,43.4-20.4
	c26.2-0.2,52,8.7,83.9,28.7c4.8,3.1,9.2,5.4,9.7,5.1c0.4-0.3,9.7-13.5,20.5-29.2l19.7-28.6l-2.9-2.4c-1.6-1.3-7.6-5.6-13.4-9.4
	c-24.1-16.1-53.6-27.1-84.2-31.4C1589.5,296.4,1564.9,295.7,1554.1,296.8z"/>
<path class="st1" d="M111.1,479.8v179h39h39l0.2-57.3l0.3-57.2l31-0.2l31-0.2l38.4,57.4l38.5,57.5h45.7H420l-43.5-63.6
	c-23.9-35-43.3-63.8-43-64.1c0.3-0.3,3.9-2,8.1-3.8c11.4-5,23.8-13.1,32.8-21.5c23.6-22.1,34.7-49.6,34.7-86.5
	c0-55.7-28-94.6-79.5-110.4c-24.5-7.5-34.4-8-135.2-8.1h-83.3V479.8z M291,374.2c21.5,5.7,34.8,19.2,38.1,38.8
	c1.5,8.4,0.8,20-1.5,27.5c-3.7,12.2-15.6,24.6-28.2,29.3c-12.4,4.7-16.1,5-64.5,5h-45.8V424c0-28,0.3-51.2,0.7-51.6
	c0.4-0.4,21.9-0.5,47.8-0.3C277.8,372.4,285.5,372.7,291,374.2z"/>
<path class="st1" d="M915.1,479.7v179.1h75.6h75.7l73.6-34.1c40.5-18.7,74-34.5,74.5-34.9c1.6-1.5,3.6-13,4.2-24
	c0.7-10.9-0.5-23-3.1-33.6c-2.1-8-8.4-20.7-14-27.6c-8.6-10.9-24.4-22.1-40.8-29c-4.2-1.7-7.7-3.4-7.7-3.8c0-0.3,3.5-2.8,7.8-5.7
	c14.2-9.4,25.6-22.7,31.4-36.4c5-11.9,6.2-18.9,6.2-35.9c-0.1-18.2-1.8-26.4-8.5-39.6c-13.1-26.2-39.4-43.4-76.9-50.5
	c-11.2-2.1-14.2-2.2-104.7-2.6l-93.3-0.4V479.7z M1091.5,372.1c13.4,4,22.6,10.8,26.8,20.1c1.9,4.3,2.3,6.8,2.3,15.6
	c0,9.1-0.3,11.2-2.5,15.5c-4.7,9.6-13.6,15.9-28.5,20.1c-5.2,1.5-12.2,1.8-52.2,2.2l-46.3,0.3v-37.4c0-20.5,0.3-37.7,0.7-38.1
	c0.4-0.4,21.7-0.6,47.3-0.4C1079.4,370.4,1086.4,370.6,1091.5,372.1z M1107.6,513.2c15.5,4,25.4,11,30.3,21.4
	c2.4,5,2.7,6.9,2.7,16.2c0,8.8-0.4,11.3-2.3,15.6c-4.3,9.5-14.3,17.1-27.8,21.1c-5.2,1.5-12.2,1.8-62.6,2.1l-56.8,0.3V551
	c0-21.4,0.3-39.2,0.7-39.6c0.4-0.4,25.1-0.6,54.8-0.3C1094,511.4,1101.5,511.7,1107.6,513.2z"/>
<path class="st1" d="M1288.1,428.4c0,101.7,0.3,127.5,1.3,127.1c0.6-0.3,10-4.6,20.8-9.6l19.6-9.1l8.4,3.9
	c4.6,2.1,12.8,5.9,18.2,8.5l9.7,4.5V427.3V300.8h-39h-39V428.4z"/>
<path class="st1" d="M2218.1,479.8v179h38.5h38.5l0.2-113.6l0.3-113.5l86.4,113.5l86.5,113.6h33.3h33.3v-179v-179h-38.5h-38.5v110.1
	c0,71.1-0.3,109.8-1,109.4c-0.5-0.3-38.4-49.8-84.2-110l-83.2-109.5h-35.8h-35.8V479.8z"/>
<path class="st2" d="M1123.1,662.4l-205.5,95.3l-401.2,0.1H115.1v17.5v17.5h405.1h405l202.1-93.6l202.1-93.7l6.6,3
	c3.6,1.7,92.7,43.8,197.9,93.7l191.3,90.6h406.4h406.5v-17.5v-17.5h-402.4h-402.4l-201.6-95.5c-110.9-52.5-202-95.5-202.4-95.4
	C1328.9,566.9,1236.1,609.9,1123.1,662.4z"/>
<g>
	<g>
		<path class="st1" d="M119,1034.7v77.7h-17.3V887.6c32.7,0,65.8,0,98.6,0c97.6,0,97.6,147.1,0,147.1H119z M119,903.7v115.3h81.2
			c74.8,0,74.8-115.3,0-115.3H119z"/>
		<path class="st1" d="M120.5,1113.9h-20.3V886.1h100.1c23.1,0,42.4,8.1,56,23.5c12,13.6,18.7,31.9,18.7,51.5s-6.6,37.9-18.7,51.5
			c-13.6,15.4-33,23.5-56,23.5h-79.7V1113.9z M103.2,1110.9h14.3v-77.7h82.7c49.3,0,71.7-37.3,71.7-72s-22.4-72-71.7-72h-97.1
			V1110.9z M200.2,1020.4h-82.7V902.2h82.7c39.6,0,57.6,30.7,57.6,59.1c0,15.5-5.1,29.9-14.4,40.6C233,1014,218,1020.4,200.2,1020.4
			z M120.5,1017.4h79.7c16.9,0,31-6,40.9-17.5c8.8-10.2,13.7-23.9,13.7-38.6c0-27-17.1-56.1-54.6-56.1h-79.7V1017.4z"/>
	</g>
	<g>
		<path class="st1" d="M598,1112.4h-22.8l-77.7-85.1h-61.3v85.1h-17.3V887.6c33.1,0,65.8,0,98.9,0c48.8,0,73.5,35,73.8,70
			c0.3,36.6-23.8,68.7-72.9,68.7L598,1112.4z M436.2,1010.9h79.6c39.2,0,56.5-22.2,56.8-53.6c0.3-26.3-17.7-53.6-54.9-53.6h-81.6
			V1010.9z"/>
		<path class="st1" d="M601.5,1113.9h-26.9l-77.7-85.1h-59.2v85.1h-20.3V886.1h100.4c23,0,42.5,7.7,56.2,22.3
			c12.2,13,19,30.4,19.1,49.1c0.2,19.6-6.6,37.3-19,49.8c-12.6,12.7-30.5,19.7-52,20.4L601.5,1113.9z M575.9,1110.9h18.7l-79.3-86
			h3.4c22.2,0,40.6-6.8,53.3-19.5c11.8-11.9,18.3-28.9,18.1-47.7c-0.3-33-23.1-68.5-72.3-68.5h-97.4v221.8h14.3v-85.1h63.5
			L575.9,1110.9z M515.9,1012.4h-81.1V902.2h83.1c16.7,0,30.9,5.4,41.1,15.8c9.9,10.1,15.5,24.4,15.3,39.4
			c-0.2,16.8-5,30.1-14.3,39.6C549.9,1007.2,535,1012.4,515.9,1012.4z M437.7,1009.4h78.1c35.3,0,55-18.5,55.3-52.1
			c0.2-14.2-5.1-27.8-14.5-37.2c-9.6-9.7-23.1-14.9-38.9-14.9h-80.1V1009.4z"/>
	</g>
	<g>
		<path class="st1" d="M950.9,1000.3c-0.3,59.1-37.9,115.9-113.3,115.9c-75.5,0-113.3-57.2-113.3-116.5
			c0-60.4,37.6-115.6,113.3-115.6C913.3,884.1,951.2,939.6,950.9,1000.3z M741.2,1000c0.3,50.7,32.4,100.2,96.3,100.2
			c64.2,0,96.6-49.4,96.6-100.2c0-52-32.1-99.9-96.6-99.9S740.9,947,741.2,1000z"/>
		<path class="st1" d="M837.6,1117.7c-35.5,0-65.3-12.6-86.1-36.5c-18.5-21.3-28.7-50.2-28.7-81.5c0-58.3,35.5-117.1,114.8-117.1
			c33.3,0,61.7,10.8,82.1,31.3c21.3,21.4,32.9,52.1,32.7,86.4l0,0c-0.2,31.2-10.4,60-28.9,81.1
			C902.8,1105.2,873.1,1117.7,837.6,1117.7z M837.6,885.6c-77.3,0-111.8,57.3-111.8,114.1c0,55.4,35,115,111.8,115
			c76.4,0,111.5-59.3,111.8-114.4c0.2-33.5-11.1-63.4-31.9-84.3C897.7,896.1,870.1,885.6,837.6,885.6z M837.6,1101.7
			c-66.8,0-97.5-52.7-97.8-101.7v0c-0.2-29.9,9.7-56.5,27.9-74.8c17.3-17.4,41.5-26.6,69.9-26.6c30.5,0,56,10.7,73.7,30.9
			c15.8,18.1,24.5,43.1,24.5,70.4C935.7,1049,905,1101.7,837.6,1101.7z M742.7,1000c0.3,47.5,30.1,98.7,94.8,98.7
			c65.4,0,95.1-51.2,95.1-98.7c0-49-29.4-98.4-95.1-98.4c-27.6,0-51.1,8.9-67.8,25.7C752.2,945.1,742.6,970.9,742.7,1000L742.7,1000
			z"/>
	</g>
	<g>
		<path class="st1" d="M1116.2,1034.7v77.7h-17.3V887.6c32.7,0,65.8,0,98.6,0c97.6,0,97.6,147.1,0,147.1H1116.2z M1116.2,903.7
			v115.3h81.2c74.8,0,74.8-115.3,0-115.3H1116.2z"/>
		<path class="st1" d="M1117.7,1113.9h-20.3V886.1h100.1c23.1,0,42.4,8.1,56,23.5c12,13.6,18.7,31.9,18.7,51.5s-6.6,37.9-18.7,51.5
			c-13.6,15.4-33,23.5-56,23.5h-79.7V1113.9z M1100.4,1110.9h14.3v-77.7h82.7c49.3,0,71.7-37.3,71.7-72s-22.4-72-71.7-72h-97.1
			V1110.9z M1197.5,1020.4h-82.7V902.2h82.7c39.6,0,57.6,30.7,57.6,59.1c0,15.5-5.1,29.9-14.4,40.6
			C1230.2,1014,1215.3,1020.4,1197.5,1020.4z M1117.7,1017.4h79.7c16.9,0,31-6,40.9-17.5c8.8-10.2,13.7-23.9,13.7-38.6
			c0-27-17.1-56.1-54.6-56.1h-79.7V1017.4z"/>
	</g>
	<g>
		<path class="st1" d="M1432.8,991.3h131.6v15.7h-131.6v88.6h141.9v16.7h-158.9V887.6h155.1V904h-138.1V991.3z"/>
		<path class="st1" d="M1576.2,1113.9h-161.9V886.1h158.1v19.4h-138.1v84.3H1566v18.7h-131.6v85.6h141.9V1113.9z M1417.3,1110.9
			h155.9v-13.7h-141.9v-91.6H1563v-12.7h-131.6v-90.3h138.1v-13.4h-152.1V1110.9z"/>
	</g>
	<g>
		<path class="st1" d="M1899.3,1112.4h-22.8l-77.7-85.1h-61.3v85.1h-17.3V887.6c33.1,0,65.8,0,98.9,0c48.8,0,73.5,35,73.8,70
			c0.3,36.6-23.8,68.7-72.9,68.7L1899.3,1112.4z M1737.5,1010.9h79.6c39.2,0,56.5-22.2,56.8-53.6c0.3-26.3-17.7-53.6-54.9-53.6
			h-81.6V1010.9z"/>
		<path class="st1" d="M1902.8,1113.9h-26.9l-77.7-85.1H1739v85.1h-20.3V886.1h100.4c23,0,42.5,7.7,56.2,22.3
			c12.2,13,19,30.4,19.1,49.1c0.2,19.6-6.6,37.3-19,49.8c-12.6,12.7-30.5,19.7-52,20.4L1902.8,1113.9z M1877.2,1110.9h18.7l-79.3-86
			h3.4c22.2,0,40.6-6.8,53.3-19.5c11.8-11.9,18.3-28.9,18.1-47.7c-0.3-33-23.1-68.5-72.3-68.5h-97.4v221.8h14.3v-85.1h63.5
			L1877.2,1110.9z M1817.1,1012.4H1736V902.2h83.1c16.7,0,30.9,5.4,41.1,15.8c9.9,10.1,15.5,24.4,15.3,39.4
			c-0.2,16.8-5,30.1-14.3,39.6C1851.2,1007.2,1836.3,1012.4,1817.1,1012.4z M1739,1009.4h78.1c35.3,0,55-18.5,55.3-52.1
			c0.2-14.2-5.1-27.8-14.5-37.2c-9.6-9.7-23.1-14.9-38.9-14.9H1739V1009.4z"/>
	</g>
	<g>
		<path class="st1" d="M2109,903.4h-81.2v-15.4h179.8v15.4h-81.2v209H2109V903.4z"/>
		<path class="st1" d="M2127.8,1113.9h-20.3v-209h-81.2v-18.4h182.8v18.4h-81.2V1113.9z M2110.5,1110.9h14.3v-209h81.2v-12.4h-176.8
			v12.4h81.2V1110.9z"/>
	</g>
	<g>
		<path class="st1" d="M2429.1,1022.5l-87.7-134.5v-0.3h20.2l76.1,118.2l76.4-118.2h20.2v0.3l-88,134.5v89.9h-17.3V1022.5z"/>
		<path class="st1" d="M2447.9,1113.9h-20.3v-91l-87.7-134.5v-2.3h22.5l0.4,0.7l74.8,116.2l75.6-116.9h22.5v2.3l-0.2,0.4
			l-87.7,134.2V1113.9z M2430.6,1110.9h14.3V1022l0.2-0.4l86.7-132.5H2515l-77.2,119.4l-76.9-119.4H2344l86.6,132.9V1110.9z"/>
	</g>
</g>
<g>
	<g>
		<path class="st1" d="M454.9,1217.7l-51.6,78.9h-3.5l-51.9-78.9v119.7h-10.4v-134.7c5,0,7.3,0,12.3,0l51.6,78.5l51-78.5h12.7v134.7
			h-10.2V1217.7z"/>
		<path class="st1" d="M466.6,1338.8h-13.2v-116.1l-49.2,75.3h-5.1l-49.6-75.4v116.2h-13.4v-137.7h14.6l50.7,77.2l50.2-77.2h15
			V1338.8z M456.4,1335.8h7.2v-131.7h-10.4l-51.8,79.7l-52.4-79.7h-10v131.7h7.4v-123.2l54.3,82.4h1.8l53.9-82.4V1335.8z"/>
	</g>
	<g>
		<path class="st1" d="M665.9,1337.3l-14.8-33.1h-80.4l-14.6,33.1h-11.2l60.4-134.7h11.4l60.4,134.7H665.9z M647.1,1294.6l-36.2-82
			l-36.2,82H647.1z"/>
		<path class="st1" d="M679.4,1338.8H665l-14.8-33.1h-78.5l-14.6,33.1h-14.5l61.8-137.7h13.3L679.4,1338.8z M666.9,1335.8h7.9
			l-59.1-131.7h-9.4l-59.1,131.7h7.9l14.6-33.1h82.4L666.9,1335.8z M649.4,1296.1h-76.9l38.5-87.2L649.4,1296.1z M577.1,1293.1h67.7
			l-33.9-76.7L577.1,1293.1z"/>
	</g>
	<g>
		<path class="st1" d="M763.1,1202.7l90.6,111.4v-111.4h10.2v134.7h-4l-90.8-111.2v111.2h-10.4v-134.7H763.1z"/>
		<path class="st1" d="M865.4,1338.8h-6.3l-88.6-108.5v108.5h-13.4v-137.7h6.6l88.4,108.7v-108.7h13.2V1338.8z M860.6,1335.8h1.8
			v-131.7h-7.2v114.1l-92.8-114.1h-2.2v131.7h7.4v-113.9L860.6,1335.8z"/>
	</g>
	<g>
		<path class="st1" d="M1065.1,1337.3l-14.8-33.1h-80.4l-14.6,33.1h-11.2l60.4-134.7h11.4l60.4,134.7H1065.1z M1046.3,1294.6
			l-36.2-82l-36.2,82H1046.3z"/>
		<path class="st1" d="M1078.6,1338.8h-14.4l-14.8-33.1h-78.5l-14.6,33.1h-14.5l61.8-137.7h13.3L1078.6,1338.8z M1066.1,1335.8h7.9
			l-59.1-131.7h-9.4l-59.1,131.7h7.9l14.6-33.1h82.4L1066.1,1335.8z M1048.6,1296.1h-76.9l38.5-87.2L1048.6,1296.1z M976.3,1293.1
			h67.7l-33.9-76.7L976.3,1293.1z"/>
	</g>
	<g>
		<path class="st1" d="M1257.5,1227.5c-11.7-11.5-28.1-17.3-43.3-17.3c-39.4,0-59.6,28.9-59.4,60c0,31.7,20.2,59.1,59.4,59.1
			c14.4,0,29.4-5,41-15.6V1276h-46.9v-9h56.8v50.4c-14,14-30.8,21.7-50.8,21.7c-45.8,0-69.5-31.9-69.5-68.7
			c-0.2-42.1,28.5-69.6,69.5-69.6c17.7,0,35.6,6.7,49.3,20.2L1257.5,1227.5z"/>
		<path class="st1" d="M1214.2,1340.6c-49,0-71-35.2-71-70.2c-0.1-20.8,6.6-38.5,19.4-51.4c12.9-12.9,30.7-19.8,51.5-19.8
			c18.9,0,36.8,7.3,50.3,20.6l1,1l-8,8.8l-1.1-1.1c-10.7-10.6-26.5-16.9-42.2-16.9c-16.9,0-31.3,5.5-41.6,15.9
			c-10.6,10.7-16.4,25.8-16.3,42.6c0,28.7,17.9,57.6,57.9,57.6c14.9,0,28.9-5.2,39.5-14.7v-35.5h-46.9v-12h59.8v52.5l-0.4,0.4
			C1251.4,1333.1,1233.9,1340.6,1214.2,1340.6z M1214.2,1202.3c-20,0-37.1,6.5-49.4,18.9c-12.2,12.3-18.6,29.3-18.5,49.2
			c0,33.4,21,67.2,68,67.2c18.7,0,35.2-7,49.3-20.9v-48.3h-53.8v6h46.9v39.9l-0.5,0.4c-11.2,10.3-26.2,16-42,16
			c-42.1,0-60.9-30.4-60.9-60.6c-0.1-17.6,6-33.5,17.2-44.7c10.9-11,26-16.8,43.8-16.8c15.9,0,32,6.2,43.2,16.7l3.9-4.3
			C1248.6,1208.9,1231.9,1202.3,1214.2,1202.3z"/>
	</g>
	<g>
		<path class="st1" d="M1367.4,1264.8h78.9v9.4h-78.9v53.1h85v10h-95.2v-134.7h92.9v9.8h-82.7V1264.8z"/>
		<path class="st1" d="M1453.9,1338.8h-98.2v-137.7h95.9v12.8h-82.7v49.3h78.9v12.4h-78.9v50.1h85V1338.8z M1358.7,1335.8h92.2v-7
			h-85v-56.1h78.9v-6.4h-78.9V1211h82.7v-6.8h-89.9V1335.8z"/>
	</g>
	<g>
		<path class="st1" d="M1656.9,1217.7l-51.6,78.9h-3.5l-51.9-78.9v119.7h-10.4v-134.7c5,0,7.3,0,12.3,0l51.6,78.5l51-78.5h12.7
			v134.7h-10.2V1217.7z"/>
		<path class="st1" d="M1668.6,1338.8h-13.2v-116.1l-49.2,75.3h-5.1l-49.6-75.4v116.2h-13.4v-137.7h14.6l50.7,77.2l50.2-77.2h15
			V1338.8z M1658.4,1335.8h7.2v-131.7h-10.4l-51.8,79.7l-52.4-79.7h-10v131.7h7.4v-123.2l54.3,82.4h1.8l53.9-82.4V1335.8z"/>
	</g>
	<g>
		<path class="st1" d="M1771,1264.8h78.9v9.4H1771v53.1h85v10h-95.2v-134.7h92.9v9.8H1771V1264.8z"/>
		<path class="st1" d="M1857.5,1338.8h-98.2v-137.7h95.9v12.8h-82.7v49.3h78.9v12.4h-78.9v50.1h85V1338.8z M1762.3,1335.8h92.2v-7
			h-85v-56.1h78.9v-6.4h-78.9V1211h82.7v-6.8h-89.9V1335.8z"/>
	</g>
	<g>
		<path class="st1" d="M1951.6,1202.7l90.6,111.4v-111.4h10.2v134.7h-4l-90.8-111.2v111.2h-10.4v-134.7H1951.6z"/>
		<path class="st1" d="M2053.9,1338.8h-6.3l-0.5-0.6l-88.1-107.9v108.5h-13.4v-137.7h6.6l88.4,108.7v-108.7h13.2V1338.8z
			 M2049.1,1335.8h1.8v-131.7h-7.2v114.1l-92.8-114.1h-2.2v131.7h7.4v-113.9L2049.1,1335.8z"/>
	</g>
	<g>
		<path class="st1" d="M2184.8,1212.1h-48.7v-9.2h107.7v9.2h-48.7v125.2h-10.4V1212.1z"/>
		<path class="st1" d="M2196.7,1338.8h-13.4v-125.2h-48.7v-12.2h110.7v12.2h-48.7V1338.8z M2186.3,1335.8h7.4v-125.2h48.7v-6.2
			h-104.7v6.2h48.7V1335.8z"/>
	</g>
</g>
</svg>
